<svg xmlns="http://www.w3.org/2000/svg" xmlns:svg="http://www.w3.org/2000/svg" id="Capa_1" width="287.979" height="276.747" x="0" y="0" enable-background="new 0 0 287.979 276.747" version="1.1" viewBox="0 0 287.979 276.747" xml:space="preserve"><metadata id="metadata21"/><g id="WEB" stroke-dasharray="none" stroke-miterlimit="4" stroke-width="10"><g id="g10" stroke-dasharray="none" stroke-miterlimit="4" stroke-width="10"><path id="path2" fill="none" stroke="#999" stroke-dasharray="none" stroke-linecap="round" stroke-linejoin="round" stroke-miterlimit="4" stroke-width="10" d="M182.506,106.397h-71.799c-2.854,0-5.497,1.368-7.1,3.562l39.797,38.765c1.729,1.716,4.686,1.716,6.413,0l39.347-39.345 C187.435,107.546,185.15,106.397,182.506,106.397z"/><path id="path4" fill="none" stroke="#999" stroke-dasharray="none" stroke-linecap="round" stroke-linejoin="round" stroke-miterlimit="4" stroke-width="10" d="M165.085,139.883l26.131,25.345c0-0.343,0.129-0.8,0.129-1.147V115.23c0-0.458,0-1.025-0.129-1.483L165.085,139.883z"/><path id="path6" fill="none" stroke="#999" stroke-dasharray="none" stroke-linecap="round" stroke-linejoin="round" stroke-miterlimit="4" stroke-width="10" d="M128.037,140.116l-26.146-25.453c0,0.226,0,0.335,0,0.567v48.739c0,0.109,0,0.226,0,0.342L128.037,140.116z"/><path id="path8" fill="none" stroke="#999" stroke-dasharray="none" stroke-linecap="round" stroke-linejoin="round" stroke-miterlimit="4" stroke-width="10" d="M189.28,169.7l-27.522-26.486l-8.724,8.711c-1.718,1.832-4.131,2.64-6.413,2.64c-2.299,0-4.71-0.916-6.428-2.64l-8.84-8.596 l-27.858,25.803c1.601,2.291,4.231,3.787,7.214,3.787h71.683C185.267,172.918,187.667,171.653,189.28,169.7z"/></g><path id="path12" fill="none" stroke="#999" stroke-dasharray="none" stroke-linecap="round" stroke-linejoin="round" stroke-miterlimit="4" stroke-width="10" d="M240.084,138.374c0,52.908-42.896,95.8-95.801,95.8c-52.906,0-95.802-42.893-95.802-95.8c0-52.907,42.896-95.8,95.802-95.8 C197.189,42.574,240.084,85.467,240.084,138.374z"/></g></svg>