<?xml version="1.0" encoding="utf-8"?>
<!-- Generator: Adobe Illustrator 16.0.0, SVG Export Plug-In . SVG Version: 6.00 Build 0)  -->
<!DOCTYPE svg PUBLIC "-//W3C//DTD SVG 1.1//EN" "http://www.w3.org/Graphics/SVG/1.1/DTD/svg11.dtd">
<svg version="1.1" xmlns="http://www.w3.org/2000/svg" xmlns:xlink="http://www.w3.org/1999/xlink" x="0px" y="0px"
	 width="287.979px" height="276.747px" viewBox="0 0 287.979 276.747" enable-background="new 0 0 287.979 276.747"
	 xml:space="preserve">
<g id="WEB">
	<g>
		<path fill="none" stroke="#999999" stroke-width="2" stroke-linecap="round" stroke-linejoin="round" stroke-miterlimit="10" d="
			M182.506,106.397h-71.799c-2.852,0-5.497,1.368-7.098,3.562l39.797,38.765c1.729,1.716,4.684,1.716,6.413,0l39.345-39.345
			C187.435,107.546,185.15,106.397,182.506,106.397z"/>
		<path fill="none" stroke="#999999" stroke-width="2" stroke-linecap="round" stroke-linejoin="round" stroke-miterlimit="10" d="
			M165.085,139.884l26.131,25.344c0-0.342,0.129-0.8,0.129-1.148V115.23c0-0.458,0-1.025-0.129-1.483L165.085,139.884z"/>
		<path fill="none" stroke="#999999" stroke-width="2" stroke-linecap="round" stroke-linejoin="round" stroke-miterlimit="10" d="
			M128.037,140.116l-26.144-25.453c0,0.226,0,0.335,0,0.567v48.739c0,0.109,0,0.226,0,0.342L128.037,140.116z"/>
		<path fill="none" stroke="#999999" stroke-width="2" stroke-linecap="round" stroke-linejoin="round" stroke-miterlimit="10" d="
			M189.28,169.699l-27.524-26.486l-8.724,8.711c-1.716,1.832-4.129,2.639-6.413,2.639c-2.297,0-4.71-0.916-6.426-2.639l-8.84-8.595
			l-27.86,25.802c1.601,2.291,4.233,3.787,7.214,3.787h71.683C185.267,172.918,187.667,171.653,189.28,169.699z"/>
	</g>
	<path fill="none" stroke="#999999" stroke-width="2" stroke-linecap="round" stroke-linejoin="round" stroke-miterlimit="10" d="
		M240.084,138.374c0,52.907-42.894,95.8-95.801,95.8c-52.906,0-95.8-42.893-95.8-95.8s42.894-95.8,95.8-95.8
		C197.19,42.574,240.084,85.467,240.084,138.374z"/>
</g>
<g id="Gutters" display="none">
</g>
</svg>
