<svg xmlns="http://www.w3.org/2000/svg" xmlns:xlink="http://www.w3.org/1999/xlink" width="287.979" height="276.747" x="0" y="0" enable-background="new 0 0 287.979 276.747" version="1.1" viewBox="0 0 287.979 276.747" xml:space="preserve"><g id="WEB"><g><g><path fill="none" stroke="#FFF" stroke-linecap="round" stroke-linejoin="round" stroke-miterlimit="10" stroke-width="3" d="M54.607,103.23v0.086c-1.85-0.134-3.5-0.458-5.084-1.054c-0.955-0.359-2.011-0.897-3.045-1.615 c-1.27-0.796-2.539-1.873-3.689-3.104c-0.625-0.667-1.231-1.413-1.775-2.207c-0.389-0.541-0.763-1.104-1.091-1.694 c-0.216-0.334-0.411-0.695-0.604-1.078c-0.412-0.744-0.781-1.514-1.094-2.337c-0.174-0.385-0.33-0.794-0.467-1.205 c-0.292-0.794-0.567-1.642-0.783-2.517c-0.097-0.259-0.153-0.541-0.215-0.792c-0.08-0.31-0.137-0.62-0.196-0.924 c-0.06-0.26-0.116-0.513-0.156-0.77c-0.097-0.618-0.193-1.258-0.271-1.901c-0.06-0.411-0.099-0.847-0.116-1.278 c-0.04-0.313-0.058-0.618-0.058-0.926c-0.02-0.486-0.037-0.975-0.037-1.463v-0.108c0-0.614,0.018-1.206,0.059-1.795 c0-0.106,0-0.205,0.021-0.333c0.037-0.594,0.079-1.159,0.153-1.72c0-0.048,0-0.075,0.018-0.128 c0.08-0.613,0.179-1.234,0.273-1.823c0-0.073,0.02-0.126,0.037-0.2c0.607-3.159,1.679-6.087,3.106-8.631 c0.295-0.51,0.585-1.001,0.92-1.487c0.29-0.439,0.581-0.877,0.897-1.282c0.427-0.565,0.88-1.102,1.346-1.622 c0.37-0.382,0.723-0.765,1.113-1.124c0.335-0.31,0.647-0.594,0.999-0.849c0.467-0.411,0.938-0.77,1.424-1.078 c0.39-0.26,0.801-0.51,1.208-0.746c0.02-0.026,0.061-0.026,0.078-0.026c0.39-0.203,0.783-0.412,1.19-0.587 c0.062-0.026,0.119-0.051,0.174-0.075c0.253-0.108,0.507-0.207,0.781-0.31c1.542-0.546,3.192-0.823,4.937-0.959v0.024h177.82 c-4.394,15.919-4.237,33.78,0.431,49.642H54.607V103.23z"/><path fill="none" stroke="#FFF" stroke-linecap="round" stroke-linejoin="round" stroke-miterlimit="10" stroke-width="3" d="M243.365,53.569H54.735v0.013c-10.401,0.077-18.81,11.174-18.81,24.849c0,13.701,8.389,24.784,18.771,24.886v0.002h0.053 c0.031,0,0.063,0.004,0.091,0.004v-0.004h188.524"/><path fill="none" stroke="#FFF" stroke-linecap="round" stroke-linejoin="round" stroke-miterlimit="10" stroke-width="3" d="M250.414,53.589"/></g><g><path fill="none" stroke="#FFF" stroke-linecap="round" stroke-linejoin="round" stroke-miterlimit="10" stroke-width="3" d="M39.833,152.646v0.084c-1.854-0.137-3.501-0.458-5.085-1.052c-0.957-0.358-2.01-0.902-3.044-1.619 c-1.27-0.796-2.539-1.876-3.689-3.106c-0.623-0.667-1.232-1.41-1.775-2.207c-0.392-0.539-0.766-1.102-1.094-1.694 c-0.216-0.332-0.411-0.695-0.604-1.078c-0.412-0.746-0.781-1.516-1.092-2.33c-0.174-0.389-0.332-0.796-0.469-1.208 c-0.29-0.797-0.564-1.646-0.78-2.517c-0.099-0.259-0.156-0.541-0.216-0.796c-0.079-0.308-0.137-0.616-0.195-0.926 c-0.063-0.255-0.119-0.513-0.154-0.768c-0.1-0.616-0.198-1.258-0.273-1.898c-0.061-0.412-0.099-0.849-0.118-1.283 c-0.037-0.308-0.056-0.616-0.056-0.924c-0.02-0.488-0.039-0.973-0.039-1.463v-0.102c0-0.62,0.02-1.208,0.062-1.802 c0-0.101,0-0.202,0.018-0.332c0.04-0.59,0.079-1.153,0.154-1.716c0-0.053,0-0.079,0.021-0.132 c0.079-0.616,0.177-1.23,0.271-1.822c0-0.075,0.021-0.13,0.038-0.205c0.604-3.159,1.679-6.083,3.104-8.626 c0.294-0.511,0.584-1.003,0.919-1.489c0.293-0.438,0.585-0.871,0.897-1.283c0.432-0.563,0.88-1.1,1.349-1.617 c0.37-0.387,0.722-0.772,1.113-1.13c0.332-0.304,0.645-0.588,0.997-0.845c0.468-0.414,0.937-0.771,1.423-1.078 c0.392-0.258,0.801-0.513,1.21-0.746c0.018-0.024,0.06-0.024,0.079-0.024c0.39-0.203,0.781-0.412,1.188-0.594 c0.062-0.022,0.118-0.048,0.176-0.075c0.253-0.101,0.506-0.202,0.783-0.306c1.535-0.548,3.189-0.825,4.932-0.961v0.028h177.82 c-4.391,15.915-4.237,33.778,0.432,49.64H39.833L39.833,152.646z"/><path fill="none" stroke="#FFF" stroke-linecap="round" stroke-linejoin="round" stroke-miterlimit="10" stroke-width="3" d="M230.027,102.978H39.958v0.016c-10.401,0.077-18.81,11.171-18.81,24.851c0,13.697,8.391,24.78,18.774,24.881v0.004h0.053 c0.03,0,0.06,0.006,0.088,0.006v-0.006h189.964"/><path fill="none" stroke="#FFF" stroke-linecap="round" stroke-linejoin="round" stroke-miterlimit="10" stroke-width="3" d="M235.639,102.995"/></g><g><path fill="none" stroke="#FFF" stroke-linecap="round" stroke-linejoin="round" stroke-miterlimit="10" stroke-width="3" d="M223.196,202.459h-178.3c4.666-15.863,4.82-33.723,0.43-49.642h177.817v-0.026c1.745,0.136,3.396,0.416,4.937,0.959 c0.275,0.106,0.528,0.203,0.781,0.313c0.055,0.022,0.112,0.044,0.174,0.075c0.409,0.176,0.801,0.383,1.192,0.585 c0.018,0,0.058,0,0.079,0.026c0.407,0.237,0.818,0.488,1.208,0.746c0.485,0.308,0.954,0.665,1.423,1.076 c0.353,0.258,0.664,0.542,0.997,0.852c0.394,0.356,0.743,0.741,1.112,1.126c0.472,0.517,0.92,1.054,1.35,1.619 c0.314,0.407,0.604,0.845,0.897,1.285c0.334,0.484,0.624,0.977,0.919,1.487c1.428,2.541,2.5,5.467,3.104,8.626 c0.02,0.075,0.037,0.127,0.037,0.202c0.097,0.592,0.194,1.21,0.272,1.824c0.018,0.053,0.018,0.081,0.018,0.127 c0.08,0.561,0.119,1.128,0.154,1.722c0.022,0.128,0.022,0.227,0.022,0.33c0.039,0.592,0.062,1.182,0.062,1.795v0.108 c0,0.493-0.022,0.979-0.04,1.465c0,0.306-0.02,0.614-0.06,0.924c-0.018,0.433-0.057,0.869-0.116,1.282 c-0.075,0.638-0.174,1.278-0.271,1.894c-0.039,0.258-0.097,0.511-0.156,0.771c-0.06,0.306-0.116,0.616-0.195,0.926 c-0.063,0.251-0.117,0.535-0.216,0.79c-0.216,0.878-0.491,1.727-0.781,2.521c-0.136,0.412-0.295,0.821-0.469,1.206 c-0.31,0.823-0.68,1.593-1.091,2.334c-0.195,0.385-0.39,0.746-0.605,1.081c-0.33,0.587-0.703,1.153-1.091,1.691 c-0.546,0.796-1.153,1.54-1.777,2.205c-1.15,1.232-2.42,2.312-3.689,3.106c-1.034,0.717-2.088,1.258-3.042,1.617 c-1.587,0.596-3.234,0.917-5.087,1.052v-0.086V202.459z"/><path fill="none" stroke="#FFF" stroke-linecap="round" stroke-linejoin="round" stroke-miterlimit="10" stroke-width="3" d="M33.741,202.541h189.222v0.007c0.029,0,0.06-0.007,0.09-0.007h0.054v-0.002c10.386-0.101,18.776-11.185,18.776-24.884 c0-13.677-8.408-24.771-18.814-24.851v-0.013H34.748"/><path fill="none" stroke="#FFF" stroke-linecap="round" stroke-linejoin="round" stroke-miterlimit="10" stroke-width="3" d="M33.741,152.811"/></g><path fill="none" stroke="#FFF" stroke-linecap="round" stroke-linejoin="round" stroke-miterlimit="10" stroke-width="3" d="M84.749,73.315v67.882l11.367-7.85c3.256-2.354,7.311-2.354,10.562,0l11.37,7.85V73.315H84.749z"/><line x1="229.404" x2="152.692" y1="78.21" y2="78.21" fill="none" stroke="#FFF" stroke-linecap="round" stroke-linejoin="round" stroke-miterlimit="10" stroke-width="3"/><line x1="212.896" x2="136.184" y1="127.857" y2="127.857" fill="none" stroke="#FFF" stroke-linecap="round" stroke-linejoin="round" stroke-miterlimit="10" stroke-width="3"/><line x1="134.417" x2="57.703" y1="177.668" y2="177.668" fill="none" stroke="#FFF" stroke-linecap="round" stroke-linejoin="round" stroke-miterlimit="10" stroke-width="3"/></g></g></svg>