<svg xmlns="http://www.w3.org/2000/svg" xmlns:xlink="http://www.w3.org/1999/xlink" width="287.979" height="276.747" x="0" y="0" enable-background="new 0 0 287.979 276.747" version="1.1" viewBox="0 0 287.979 276.747" xml:space="preserve"><g id="WEB"><g><rect width="98.349" height="37.467" x="86" y="56.417" fill="none" stroke="#FFF" stroke-linecap="round" stroke-linejoin="round" stroke-miterlimit="10" stroke-width="3"/><path fill="none" stroke="#FFF" stroke-linecap="round" stroke-linejoin="round" stroke-miterlimit="10" stroke-width="3" d="M69.61,33c-3.876,0-7.025,3.152-7.025,7.026v196.698c0,3.871,3.149,7.023,7.025,7.023h131.13c3.874,0,7.026-3.152,7.026-7.023 V40.025c0-3.874-3.152-7.026-7.026-7.026H69.61z"/><rect width="14.052" height="14.05" x="86" y="121.983" fill="none" stroke="#FFF" stroke-linecap="round" stroke-linejoin="round" stroke-miterlimit="10" stroke-width="3"/><rect width="14.049" height="14.05" x="128.151" y="121.983" fill="none" stroke="#FFF" stroke-linecap="round" stroke-linejoin="round" stroke-miterlimit="10" stroke-width="3"/><rect width="14.049" height="14.05" x="170.3" y="121.983" fill="none" stroke="#FFF" stroke-linecap="round" stroke-linejoin="round" stroke-miterlimit="10" stroke-width="3"/><rect width="14.052" height="14.05" x="86" y="164.131" fill="none" stroke="#FFF" stroke-linecap="round" stroke-linejoin="round" stroke-miterlimit="10" stroke-width="3"/><rect width="14.049" height="14.05" x="128.151" y="164.131" fill="none" stroke="#FFF" stroke-linecap="round" stroke-linejoin="round" stroke-miterlimit="10" stroke-width="3"/><rect width="14.049" height="14.05" x="170.3" y="164.131" fill="none" stroke="#FFF" stroke-linecap="round" stroke-linejoin="round" stroke-miterlimit="10" stroke-width="3"/><rect width="14.052" height="14.047" x="86" y="206.283" fill="none" stroke="#FFF" stroke-linecap="round" stroke-linejoin="round" stroke-miterlimit="10" stroke-width="3"/><rect width="14.049" height="14.047" x="128.151" y="206.283" fill="none" stroke="#FFF" stroke-linecap="round" stroke-linejoin="round" stroke-miterlimit="10" stroke-width="3"/><rect width="14.049" height="14.047" x="170.3" y="206.283" fill="none" stroke="#FFF" stroke-linecap="round" stroke-linejoin="round" stroke-miterlimit="10" stroke-width="3"/></g></g></svg>