<svg xmlns="http://www.w3.org/2000/svg" xmlns:xlink="http://www.w3.org/1999/xlink" id="Capa_1" width="287.979" height="276.747" x="0" y="0" enable-background="new 0 0 287.979 276.747" version="1.1" viewBox="0 0 287.979 276.747" xml:space="preserve"><g id="WEB"><g><g><line x1="100.437" x2="100.437" y1="87.234" y2="203.458" fill="none" stroke="#FFF" stroke-linejoin="round" stroke-miterlimit="10" stroke-width="3"/><g><rect width="75.108" height="116.313" x="48.144" y="87.219" fill="none" stroke="#FFF" stroke-linejoin="round" stroke-miterlimit="10" stroke-width="3"/><rect width="75.108" height="20.714" x="48.144" y="66.652" fill="none" stroke="#FFF" stroke-linejoin="round" stroke-miterlimit="10" stroke-width="3"/><path fill="none" stroke="#FFF" stroke-linejoin="round" stroke-miterlimit="10" stroke-width="3" d="M123.252,51.13v15.304 H48.144V51.13c0-9.021,9.362-16.357,20.869-16.357h33.37C113.901,34.773,123.252,42.109,123.252,51.13z"/><line x1="71.634" x2="71.634" y1="87.234" y2="203.375" fill="none" stroke="#FFF" stroke-linejoin="round" stroke-miterlimit="10" stroke-width="3"/><g><polyline fill="none" stroke="#FFF" stroke-linejoin="round" stroke-miterlimit="10" stroke-width="3" points="84.499 251.59 48.124 203.309 124.227 203.309 88.076 251.463"/><path fill="none" stroke="#FFF" stroke-linejoin="round" stroke-miterlimit="10" stroke-width="3" d="M87.851,251.594 c-0.582,0.479-1.276,0.56-1.67,0.56c-0.392,0-1.099-0.081-1.682-0.563l-13.195-17.719l29.397,0.221L87.851,251.594z"/></g></g></g><g><rect width="75.108" height="116.313" x="163.534" y="87.219" fill="none" stroke="#FFF" stroke-linejoin="round" stroke-miterlimit="10" stroke-width="3"/><rect width="75.108" height="20.714" x="163.534" y="66.652" fill="none" stroke="#FFF" stroke-linejoin="round" stroke-miterlimit="10" stroke-width="3"/><path fill="none" stroke="#FFF" stroke-linejoin="round" stroke-miterlimit="10" stroke-width="3" d="M238.644,51.13v15.304 h-75.108V51.13c0-9.021,9.371-16.357,20.868-16.357h33.367C229.284,34.773,238.644,42.109,238.644,51.13z"/><line x1="187.024" x2="187.024" y1="87.234" y2="203.375" fill="none" stroke="#FFF" stroke-linejoin="round" stroke-miterlimit="10" stroke-width="3"/><line x1="215.832" x2="215.832" y1="87.234" y2="203.458" fill="none" stroke="#FFF" stroke-linejoin="round" stroke-miterlimit="10" stroke-width="3"/><g><polyline fill="none" stroke="#FFF" stroke-linejoin="round" stroke-miterlimit="10" stroke-width="3" points="199.895 251.59 163.519 203.309 239.622 203.309 203.476 251.463"/><path fill="none" stroke="#FFF" stroke-linejoin="round" stroke-miterlimit="10" stroke-width="3" d="M203.242,251.594 c-0.583,0.479-1.282,0.56-1.666,0.56c-0.393,0-1.104-0.081-1.683-0.563l-13.195-17.719l29.397,0.221L203.242,251.594z"/></g></g></g></g></svg>