<?xml version="1.0" encoding="UTF-8" standalone="no"?>
<!-- Generator: Adobe Illustrator 16.0.0, SVG Export Plug-In . SVG Version: 6.00 Build 0)  -->

<svg
   xmlns:dc="http://purl.org/dc/elements/1.1/"
   xmlns:cc="http://creativecommons.org/ns#"
   xmlns:rdf="http://www.w3.org/1999/02/22-rdf-syntax-ns#"
   xmlns:svg="http://www.w3.org/2000/svg"
   xmlns="http://www.w3.org/2000/svg"
   xmlns:sodipodi="http://sodipodi.sourceforge.net/DTD/sodipodi-0.dtd"
   xmlns:inkscape="http://www.inkscape.org/namespaces/inkscape"
   version="1.1"
   id="Capa_1"
   x="0px"
   y="0px"
   width="287.979px"
   height="276.747px"
   viewBox="0 0 287.979 276.747"
   style="enable-background:new 0 0 287.979 276.747;"
   xml:space="preserve"
   sodipodi:docname="phone.svg"
   inkscape:version="0.92.3 (3ce5693, 2018-03-11)"><metadata
   id="metadata13"><rdf:RDF><cc:Work
       rdf:about=""><dc:format>image/svg+xml</dc:format><dc:type
         rdf:resource="http://purl.org/dc/dcmitype/StillImage" /></cc:Work></rdf:RDF></metadata><defs
   id="defs11" /><sodipodi:namedview
   pagecolor="#ffffff"
   bordercolor="#666666"
   borderopacity="1"
   objecttolerance="10"
   gridtolerance="10"
   guidetolerance="10"
   inkscape:pageopacity="0"
   inkscape:pageshadow="2"
   inkscape:window-width="1366"
   inkscape:window-height="717"
   id="namedview9"
   showgrid="false"
   inkscape:zoom="0.85276441"
   inkscape:cx="143.9895"
   inkscape:cy="138.3735"
   inkscape:window-x="0"
   inkscape:window-y="25"
   inkscape:window-maximized="1"
   inkscape:current-layer="Capa_1" />
<g
   id="WEB"
   style="stroke-width:10;stroke-miterlimit:4;stroke-dasharray:none">
	<path
   style="fill:none;stroke:#999999;stroke-width:10;stroke-linecap:round;stroke-linejoin:round;stroke-miterlimit:4;stroke-dasharray:none"
   d="   M205.372,164.303c-5.568-4.803-13.045-9.688-19.662-15.016c-3.547-1.918-7.135-2.613-10.246-1.576   c-3.097,1.043-4.87,3.137-6.303,4.748c-4.353,4.852-7.94,5.895-11.379,5.566c-3.534-0.408-7.244-2.525-10.301-5.736l-10.929-10.921   c-3.219-3.065-5.334-6.769-5.729-10.315c-0.328-3.432,0.709-7.02,5.553-11.366c1.61-1.439,3.711-3.213,4.748-6.316   c1.037-3.098,0.341-6.685-1.569-10.247c-5.334-6.603-10.205-14.08-15.021-19.66c-3.289-3.301-8.063-4.311-11.598-3.206   c-3.343,1.037-5.921,3.309-8.063,5.396c-12.089,12.081-17.15,24.511-14.98,37.035c2.155,12.525,10.778,24.3,23.727,37.247   c5.115,5.115,10.737,10.752,15.28,15.295c12.948,12.948,24.737,21.557,37.261,23.728c12.511,2.168,24.94-2.9,37.03-14.981   c2.086-2.149,4.363-4.721,5.402-8.064C209.697,172.379,208.687,167.604,205.372,164.303z"
   id="path2" />
	<path
   style="fill:none;stroke:#999999;stroke-width:10;stroke-linecap:round;stroke-linejoin:round;stroke-miterlimit:4;stroke-dasharray:none"
   d="   M245.279,138.374c0,55.939-45.352,101.289-101.29,101.289C88.05,239.663,42.7,194.311,42.7,138.374   c0-55.938,45.351-101.29,101.29-101.29C199.929,37.084,245.279,82.435,245.279,138.374z"
   id="path4" />
</g>
<g
   id="Gutters"
   style="display:none;">
</g>
</svg>