<svg xmlns="http://www.w3.org/2000/svg" xmlns:svg="http://www.w3.org/2000/svg" id="Capa_1" width="287.979" height="276.747" x="0" y="0" enable-background="new 0 0 287.979 276.747" version="1.1" viewBox="0 0 287.979 276.747" xml:space="preserve"><metadata id="metadata13"/><g id="WEB" stroke-dasharray="none" stroke-miterlimit="4" stroke-width="10"><path id="path2" fill="none" stroke="#999" stroke-dasharray="none" stroke-linecap="round" stroke-linejoin="round" stroke-miterlimit="4" stroke-width="10" d="M205.372,164.303c-5.568-4.803-13.045-9.688-19.662-15.016c-3.547-1.918-7.135-2.613-10.246-1.576 c-3.097,1.043-4.87,3.137-6.303,4.748c-4.353,4.852-7.94,5.895-11.379,5.566c-3.534-0.408-7.244-2.525-10.301-5.736l-10.929-10.921 c-3.219-3.065-5.334-6.769-5.729-10.315c-0.328-3.432,0.709-7.02,5.553-11.366c1.61-1.439,3.711-3.213,4.748-6.316 c1.037-3.098,0.341-6.685-1.569-10.247c-5.334-6.603-10.205-14.08-15.021-19.66c-3.289-3.301-8.063-4.311-11.598-3.206 c-3.343,1.037-5.921,3.309-8.063,5.396c-12.089,12.081-17.15,24.511-14.98,37.035c2.155,12.525,10.778,24.3,23.727,37.247 c5.115,5.115,10.737,10.752,15.28,15.295c12.948,12.948,24.737,21.557,37.261,23.728c12.511,2.168,24.94-2.9,37.03-14.981 c2.086-2.149,4.363-4.721,5.402-8.064C209.697,172.379,208.687,167.604,205.372,164.303z"/><path id="path4" fill="none" stroke="#999" stroke-dasharray="none" stroke-linecap="round" stroke-linejoin="round" stroke-miterlimit="4" stroke-width="10" d="M245.279,138.374c0,55.939-45.352,101.289-101.29,101.289C88.05,239.663,42.7,194.311,42.7,138.374 c0-55.938,45.351-101.29,101.29-101.29C199.929,37.084,245.279,82.435,245.279,138.374z"/></g></svg>