<svg xmlns="http://www.w3.org/2000/svg" xmlns:xlink="http://www.w3.org/1999/xlink" id="Capa_1" width="287.979" height="276.747" x="0" y="0" enable-background="new 0 0 287.979 276.747" version="1.1" viewBox="0 0 287.979 276.747" xml:space="preserve"><g><path fill="none" stroke="#FFF" stroke-linejoin="round" stroke-miterlimit="10" stroke-width="3" d="M224.036,165.667 c10.142-7.09,15.719-16.508,15.719-26.524c0-10.013-5.581-19.435-15.719-26.516"/><path fill="none" stroke="#FFF" stroke-linejoin="round" stroke-miterlimit="10" stroke-width="3" d="M252.372,139.142"/><path fill="none" stroke="#FFF" stroke-linejoin="round" stroke-miterlimit="10" stroke-width="3" d="M229.816,193.676 c45.446-29.2,45.446-76.693-0.017-105.872"/><path fill="none" stroke="#FFF" stroke-linejoin="round" stroke-miterlimit="10" stroke-width="3" d="M71.192,172.571 c-20.17-5.341-35.095-23.705-35.095-45.567c0-21.853,14.925-40.233,35.095-45.571V172.571z"/><rect width="48.167" height="90.992" x="70.287" y="81.557" fill="none" stroke="#FFF" stroke-linejoin="round" stroke-miterlimit="10" stroke-width="3"/><polygon fill="none" stroke="#FFF" stroke-linejoin="round" stroke-miterlimit="10" stroke-width="3" points="181.848 211.474 118.454 172.549 118.454 81.557 181.848 42.634"/><path fill="none" stroke="#FFF" stroke-linejoin="round" stroke-miterlimit="10" stroke-width="3" d="M70.104,173.467 l10.46,28.754c2.456,6.738,8.936,11.261,16.091,11.261h0.013c1.997,0,3.957-0.347,5.861-1.032 c8.864-3.242,13.44-13.09,10.217-21.945l-6.062-16.676"/></g></svg>