<svg xmlns="http://www.w3.org/2000/svg" xmlns:xlink="http://www.w3.org/1999/xlink" id="Capa_1" width="287.979" height="276.747" x="0" y="0" enable-background="new 0 0 287.979 276.747" version="1.1" viewBox="0 0 287.979 276.747" xml:space="preserve"><g id="WEB"><g><rect width="41.106" height="19.525" x="123.711" y="111.761" fill="none" stroke="#FFF" stroke-linejoin="round" stroke-miterlimit="10" stroke-width="3"/><polygon fill="none" stroke="#FFF" stroke-linejoin="round" stroke-miterlimit="10" stroke-width="3" points="187.792 103.038 187.736 102.972 187.736 102.778 187.736 102.778 144.073 70.891 100.013 102.778 100.013 102.778 100.013 102.972 99.954 103.038 100.013 103.038 100.013 135.186 100.013 201.907 117.998 201.907 169.748 202.176 187.736 202.176 187.736 135.186 187.736 103.038"/><g><g><rect width="13.211" height="14.349" x="195.535" y="125.058" fill="none" stroke="#FFF" stroke-linejoin="round" stroke-miterlimit="10" stroke-width="3"/><rect width="13.216" height="14.349" x="234.893" y="125.058" fill="none" stroke="#FFF" stroke-linejoin="round" stroke-miterlimit="10" stroke-width="3"/><rect width="13.214" height="14.343" x="215.214" y="124.936" fill="none" stroke="#FFF" stroke-linejoin="round" stroke-miterlimit="10" stroke-width="3"/></g><rect width="68.223" height="95.87" x="187.803" y="102.916" fill="none" stroke="#FFF" stroke-linejoin="round" stroke-miterlimit="10" stroke-width="3"/><g><rect width="13.213" height="14.349" x="39.549" y="125.058" fill="none" stroke="#FFF" stroke-linejoin="round" stroke-miterlimit="10" stroke-width="3"/><rect width="13.216" height="14.349" x="78.911" y="125.058" fill="none" stroke="#FFF" stroke-linejoin="round" stroke-miterlimit="10" stroke-width="3"/><rect width="13.216" height="14.343" x="59.228" y="124.936" fill="none" stroke="#FFF" stroke-linejoin="round" stroke-miterlimit="10" stroke-width="3"/></g><rect width="68.224" height="95.87" x="31.815" y="102.916" fill="none" stroke="#FFF" stroke-linejoin="round" stroke-miterlimit="10" stroke-width="3"/></g><g><path fill="none" stroke="#FFF" stroke-linejoin="round" stroke-miterlimit="10" stroke-width="3" d="M144.268,153.237 L144.268,153.237c-5.407,0-10.269,1.85-13.823,4.859c-3.561,3.004-5.749,7.169-5.749,11.678v32.148h39.216v-32.148 c0-4.566-2.19-8.674-5.748-11.678c-3.562-3.01-8.488-4.859-13.826-4.859H144.268z"/><line x1="144.268" x2="144.268" y1="153.237" y2="201.937" fill="none" stroke="#FFF" stroke-linejoin="round" stroke-miterlimit="10" stroke-width="3"/></g><rect width="70.044" height="8.34" x="187.726" y="190.651" fill="none" stroke="#FFF" stroke-linejoin="round" stroke-miterlimit="10" stroke-width="3"/><path fill="none" stroke="#FFF" stroke-linecap="round" stroke-linejoin="round" stroke-miterlimit="10" stroke-width="3" d="M100.587,91.658"/><polyline fill="none" stroke="#FFF" stroke-linecap="round" stroke-linejoin="round" stroke-miterlimit="10" stroke-width="3" points="188.307 91.398 188.307 91.398 144.649 59.511 100.587 91.398 100.587 91.398 100.587 91.595"/><line x1="188.307" x2="188.363" y1="91.658" y2="91.658" fill="none" stroke="#FFF" stroke-linecap="round" stroke-linejoin="round" stroke-miterlimit="10" stroke-width="3"/><g><path fill="none" stroke="#FFF" stroke-linecap="round" stroke-linejoin="round" stroke-miterlimit="10" stroke-width="3" d="M156.779,36.642c4.087,0.938,8.295,2.015,12.631,0.403v14.247c-3.965,1.612-7.928,0.671-12.136-0.271 c-2.602-0.673-5.199-1.209-7.925-1.209c-1.605,0-3.093,0.271-4.7,0.806V36.236C148.607,34.627,152.571,35.565,156.779,36.642z"/><line x1="144.649" x2="144.649" y1="31.877" y2="72.319" fill="none" stroke="#FFF" stroke-linecap="round" stroke-linejoin="round" stroke-miterlimit="10" stroke-width="3"/></g><rect width="70.044" height="8.34" x="30.209" y="190.651" fill="none" stroke="#FFF" stroke-linejoin="round" stroke-miterlimit="10" stroke-width="3"/><polyline fill="none" stroke="#FFF" stroke-linecap="round" stroke-linejoin="round" stroke-miterlimit="10" stroke-width="3" points="188.307 91.398 188.307 91.398 144.649 59.511 100.587 91.398 100.587 91.398 100.587 91.595"/><rect width="70.044" height="11.446" x="187.726" y="91.255" fill="none" stroke="#FFF" stroke-linejoin="round" stroke-miterlimit="10" stroke-width="3"/><rect width="70.041" height="11.446" x="30.385" y="91.255" fill="none" stroke="#FFF" stroke-linejoin="round" stroke-miterlimit="10" stroke-width="3"/></g></g></svg>