<?xml version="1.0" encoding="iso-8859-1"?>
<!-- Generator: Adobe Illustrator 16.0.0, SVG Export Plug-In . SVG Version: 6.00 Build 0)  -->
<!DOCTYPE svg PUBLIC "-//W3C//DTD SVG 1.1//EN" "http://www.w3.org/Graphics/SVG/1.1/DTD/svg11.dtd">
<svg version="1.1" id="Capa_1" xmlns="http://www.w3.org/2000/svg" xmlns:xlink="http://www.w3.org/1999/xlink" x="0px" y="0px"
	 width="287.979px" height="276.747px" viewBox="0 0 287.979 276.747" style="enable-background:new 0 0 287.979 276.747;"
	 xml:space="preserve">
<g id="WEB">
	<g>
		
			<rect x="123.711" y="111.761" style="fill:none;stroke:#FFFFFF;stroke-width:3;stroke-linejoin:round;stroke-miterlimit:10;" width="41.106" height="19.525"/>
		<polygon style="fill:none;stroke:#FFFFFF;stroke-width:3;stroke-linejoin:round;stroke-miterlimit:10;" points="187.792,103.038 
			187.736,102.972 187.736,102.778 187.736,102.778 144.073,70.891 100.013,102.778 100.013,102.778 100.013,102.972 
			99.954,103.038 100.013,103.038 100.013,135.186 100.013,201.907 117.998,201.907 169.748,202.176 187.736,202.176 
			187.736,135.186 187.736,103.038 		"/>
		<g>
			<g>
				
					<rect x="195.535" y="125.058" style="fill:none;stroke:#FFFFFF;stroke-width:3;stroke-linejoin:round;stroke-miterlimit:10;" width="13.211" height="14.349"/>
				
					<rect x="234.893" y="125.058" style="fill:none;stroke:#FFFFFF;stroke-width:3;stroke-linejoin:round;stroke-miterlimit:10;" width="13.216" height="14.349"/>
				
					<rect x="215.214" y="124.936" style="fill:none;stroke:#FFFFFF;stroke-width:3;stroke-linejoin:round;stroke-miterlimit:10;" width="13.214" height="14.343"/>
			</g>
			
				<rect x="187.803" y="102.916" style="fill:none;stroke:#FFFFFF;stroke-width:3;stroke-linejoin:round;stroke-miterlimit:10;" width="68.223" height="95.87"/>
			<g>
				
					<rect x="39.549" y="125.058" style="fill:none;stroke:#FFFFFF;stroke-width:3;stroke-linejoin:round;stroke-miterlimit:10;" width="13.213" height="14.349"/>
				
					<rect x="78.911" y="125.058" style="fill:none;stroke:#FFFFFF;stroke-width:3;stroke-linejoin:round;stroke-miterlimit:10;" width="13.216" height="14.349"/>
				
					<rect x="59.228" y="124.936" style="fill:none;stroke:#FFFFFF;stroke-width:3;stroke-linejoin:round;stroke-miterlimit:10;" width="13.216" height="14.343"/>
			</g>
			
				<rect x="31.815" y="102.916" style="fill:none;stroke:#FFFFFF;stroke-width:3;stroke-linejoin:round;stroke-miterlimit:10;" width="68.224" height="95.87"/>
		</g>
		<g>
			<path style="fill:none;stroke:#FFFFFF;stroke-width:3;stroke-linejoin:round;stroke-miterlimit:10;" d="M144.268,153.237
				L144.268,153.237c-5.407,0-10.269,1.85-13.823,4.859c-3.561,3.004-5.749,7.169-5.749,11.678v32.148h39.216v-32.148
				c0-4.566-2.19-8.674-5.748-11.678c-3.562-3.01-8.488-4.859-13.826-4.859H144.268z"/>
			
				<line style="fill:none;stroke:#FFFFFF;stroke-width:3;stroke-linejoin:round;stroke-miterlimit:10;" x1="144.268" y1="153.237" x2="144.268" y2="201.937"/>
		</g>
		
			<rect x="187.726" y="190.651" style="fill:none;stroke:#FFFFFF;stroke-width:3;stroke-linejoin:round;stroke-miterlimit:10;" width="70.044" height="8.34"/>
		<path style="fill:none;stroke:#FFFFFF;stroke-width:3;stroke-linecap:round;stroke-linejoin:round;stroke-miterlimit:10;" d="
			M100.587,91.658"/>
		
			<polyline style="fill:none;stroke:#FFFFFF;stroke-width:3;stroke-linecap:round;stroke-linejoin:round;stroke-miterlimit:10;" points="
			188.307,91.398 188.307,91.398 144.649,59.511 100.587,91.398 100.587,91.398 100.587,91.595 		"/>
		
			<line style="fill:none;stroke:#FFFFFF;stroke-width:3;stroke-linecap:round;stroke-linejoin:round;stroke-miterlimit:10;" x1="188.307" y1="91.658" x2="188.363" y2="91.658"/>
		<g>
			<path style="fill:none;stroke:#FFFFFF;stroke-width:3;stroke-linecap:round;stroke-linejoin:round;stroke-miterlimit:10;" d="
				M156.779,36.642c4.087,0.938,8.295,2.015,12.631,0.403v14.247c-3.965,1.612-7.928,0.671-12.136-0.271
				c-2.602-0.673-5.199-1.209-7.925-1.209c-1.605,0-3.093,0.271-4.7,0.806V36.236C148.607,34.627,152.571,35.565,156.779,36.642z"/>
			
				<line style="fill:none;stroke:#FFFFFF;stroke-width:3;stroke-linecap:round;stroke-linejoin:round;stroke-miterlimit:10;" x1="144.649" y1="31.877" x2="144.649" y2="72.319"/>
		</g>
		
			<rect x="30.209" y="190.651" style="fill:none;stroke:#FFFFFF;stroke-width:3;stroke-linejoin:round;stroke-miterlimit:10;" width="70.044" height="8.34"/>
		
			<polyline style="fill:none;stroke:#FFFFFF;stroke-width:3;stroke-linecap:round;stroke-linejoin:round;stroke-miterlimit:10;" points="
			188.307,91.398 188.307,91.398 144.649,59.511 100.587,91.398 100.587,91.398 100.587,91.595 		"/>
		
			<rect x="187.726" y="91.255" style="fill:none;stroke:#FFFFFF;stroke-width:3;stroke-linejoin:round;stroke-miterlimit:10;" width="70.044" height="11.446"/>
		
			<rect x="30.385" y="91.255" style="fill:none;stroke:#FFFFFF;stroke-width:3;stroke-linejoin:round;stroke-miterlimit:10;" width="70.041" height="11.446"/>
	</g>
</g>
<g id="Gutters" style="display:none;">
</g>
</svg>
