<?xml version="1.0" encoding="utf-8"?>
<!-- Generator: Adobe Illustrator 16.0.0, SVG Export Plug-In . SVG Version: 6.00 Build 0)  -->
<!DOCTYPE svg PUBLIC "-//W3C//DTD SVG 1.1//EN" "http://www.w3.org/Graphics/SVG/1.1/DTD/svg11.dtd">
<svg version="1.1" xmlns="http://www.w3.org/2000/svg" xmlns:xlink="http://www.w3.org/1999/xlink" x="0px" y="0px"
	 width="287.979px" height="276.747px" viewBox="0 0 287.979 276.747" enable-background="new 0 0 287.979 276.747"
	 xml:space="preserve">
<g id="WEB">
	<g opacity="0.8">
		<g opacity="0.4">
			<defs>
				<rect id="SVGID_7_" x="-220.084" y="-280.396" opacity="0.4" width="198.898" height="432.029"/>
			</defs>
			<clipPath id="SVGID_2_">
				<use xlink:href="#SVGID_7_"  overflow="visible"/>
			</clipPath>
			<g opacity="0.2" clip-path="url(#SVGID_2_)">
				<g>
					<path fill="#8E9093" d="M17.914,134.368c110.098,0,199.602-89.514,199.602-199.617c0-22.348-18.125-40.502-40.521-40.502
						c-22.359,0-40.496,18.154-40.496,40.502c0,65.377-53.17,118.582-118.584,118.582c-65.281,0-118.434-53.205-118.434-118.582
						c0-22.348-18.191-40.502-40.514-40.502c-22.369,0-40.521,18.154-40.521,40.502C-181.555,44.854-92.059,134.368,17.914,134.368z
						"/>
				</g>
			</g>
		</g>
	</g>
	<g>
		
			<rect x="54.281" y="110.08" fill="none" stroke="#FFFFFF" stroke-width="2" stroke-miterlimit="10" width="36.075" height="109.336"/>
		
			<rect x="120.413" y="83.214" fill="none" stroke="#FFFFFF" stroke-width="2" stroke-miterlimit="10" width="36.074" height="136.202"/>
		
			<rect x="185.343" y="56.348" fill="none" stroke="#FFFFFF" stroke-width="2" stroke-miterlimit="10" width="36.072" height="163.068"/>
		
			<line fill="none" stroke="#FFFFFF" stroke-width="2" stroke-miterlimit="10" x1="33.876" y1="219.115" x2="240.841" y2="219.115"/>
	</g>
</g>
<g id="Gutters" display="none">
</g>
</svg>
