<?xml version="1.0" encoding="UTF-8" standalone="no"?>
<!-- Generator: Adobe Illustrator 16.0.0, SVG Export Plug-In . SVG Version: 6.00 Build 0)  -->

<svg
   xmlns:dc="http://purl.org/dc/elements/1.1/"
   xmlns:cc="http://creativecommons.org/ns#"
   xmlns:rdf="http://www.w3.org/1999/02/22-rdf-syntax-ns#"
   xmlns:svg="http://www.w3.org/2000/svg"
   xmlns="http://www.w3.org/2000/svg"
   xmlns:sodipodi="http://sodipodi.sourceforge.net/DTD/sodipodi-0.dtd"
   xmlns:inkscape="http://www.inkscape.org/namespaces/inkscape"
   version="1.1"
   id="Capa_1"
   x="0px"
   y="0px"
   width="287.979px"
   height="276.747px"
   viewBox="0 0 287.979 276.747"
   style="enable-background:new 0 0 287.979 276.747;"
   xml:space="preserve"
   sodipodi:docname="email.svg"
   inkscape:version="0.92.3 (3ce5693, 2018-03-11)"><metadata
   id="metadata21"><rdf:RDF><cc:Work
       rdf:about=""><dc:format>image/svg+xml</dc:format><dc:type
         rdf:resource="http://purl.org/dc/dcmitype/StillImage" /></cc:Work></rdf:RDF></metadata><defs
   id="defs19" /><sodipodi:namedview
   pagecolor="#ffffff"
   bordercolor="#666666"
   borderopacity="1"
   objecttolerance="10"
   gridtolerance="10"
   guidetolerance="10"
   inkscape:pageopacity="0"
   inkscape:pageshadow="2"
   inkscape:window-width="1366"
   inkscape:window-height="717"
   id="namedview17"
   showgrid="false"
   inkscape:zoom="0.85276441"
   inkscape:cx="143.9895"
   inkscape:cy="138.3735"
   inkscape:window-x="0"
   inkscape:window-y="25"
   inkscape:window-maximized="1"
   inkscape:current-layer="Capa_1" />
<g
   id="WEB"
   style="stroke-width:10;stroke-miterlimit:4;stroke-dasharray:none">
	<g
   id="g10"
   style="stroke-width:10;stroke-miterlimit:4;stroke-dasharray:none">
		<path
   style="fill:none;stroke:#999999;stroke-width:10;stroke-linecap:round;stroke-linejoin:round;stroke-miterlimit:4;stroke-dasharray:none"
   d="    M182.506,106.397h-71.799c-2.854,0-5.497,1.368-7.1,3.562l39.797,38.765c1.729,1.716,4.686,1.716,6.413,0l39.347-39.345    C187.435,107.546,185.15,106.397,182.506,106.397z"
   id="path2" />
		<path
   style="fill:none;stroke:#999999;stroke-width:10;stroke-linecap:round;stroke-linejoin:round;stroke-miterlimit:4;stroke-dasharray:none"
   d="    M165.085,139.883l26.131,25.345c0-0.343,0.129-0.8,0.129-1.147V115.23c0-0.458,0-1.025-0.129-1.483L165.085,139.883z"
   id="path4" />
		<path
   style="fill:none;stroke:#999999;stroke-width:10;stroke-linecap:round;stroke-linejoin:round;stroke-miterlimit:4;stroke-dasharray:none"
   d="    M128.037,140.116l-26.146-25.453c0,0.226,0,0.335,0,0.567v48.739c0,0.109,0,0.226,0,0.342L128.037,140.116z"
   id="path6" />
		<path
   style="fill:none;stroke:#999999;stroke-width:10;stroke-linecap:round;stroke-linejoin:round;stroke-miterlimit:4;stroke-dasharray:none"
   d="    M189.28,169.7l-27.522-26.486l-8.724,8.711c-1.718,1.832-4.131,2.64-6.413,2.64c-2.299,0-4.71-0.916-6.428-2.64l-8.84-8.596    l-27.858,25.803c1.601,2.291,4.231,3.787,7.214,3.787h71.683C185.267,172.918,187.667,171.653,189.28,169.7z"
   id="path8" />
	</g>
	<path
   style="fill:none;stroke:#999999;stroke-width:10;stroke-linecap:round;stroke-linejoin:round;stroke-miterlimit:4;stroke-dasharray:none"
   d="   M240.084,138.374c0,52.908-42.896,95.8-95.801,95.8c-52.906,0-95.802-42.893-95.802-95.8c0-52.907,42.896-95.8,95.802-95.8   C197.189,42.574,240.084,85.467,240.084,138.374z"
   id="path12" />
</g>
<g
   id="Gutters"
   style="display:none;">
</g>
</svg>