<?xml version="1.0" encoding="utf-8"?>
<!-- Generator: Adobe Illustrator 16.0.0, SVG Export Plug-In . SVG Version: 6.00 Build 0)  -->
<!DOCTYPE svg PUBLIC "-//W3C//DTD SVG 1.1//EN" "http://www.w3.org/Graphics/SVG/1.1/DTD/svg11.dtd">
<svg version="1.1" xmlns="http://www.w3.org/2000/svg" xmlns:xlink="http://www.w3.org/1999/xlink" x="0px" y="0px"
	 width="287.979px" height="276.747px" viewBox="0 0 287.979 276.747" enable-background="new 0 0 287.979 276.747"
	 xml:space="preserve">
<g id="WEB">
	<g>
		
			<rect x="86" y="56.417" fill="none" stroke="#FFFFFF" stroke-width="3" stroke-linecap="round" stroke-linejoin="round" stroke-miterlimit="10" width="98.349" height="37.467"/>
		<path fill="none" stroke="#FFFFFF" stroke-width="3" stroke-linecap="round" stroke-linejoin="round" stroke-miterlimit="10" d="
			M69.61,33c-3.876,0-7.025,3.152-7.025,7.026v196.698c0,3.871,3.149,7.023,7.025,7.023h131.13c3.874,0,7.026-3.152,7.026-7.023
			V40.025c0-3.874-3.152-7.026-7.026-7.026H69.61z"/>
		
			<rect x="86" y="121.983" fill="none" stroke="#FFFFFF" stroke-width="3" stroke-linecap="round" stroke-linejoin="round" stroke-miterlimit="10" width="14.052" height="14.05"/>
		
			<rect x="128.151" y="121.983" fill="none" stroke="#FFFFFF" stroke-width="3" stroke-linecap="round" stroke-linejoin="round" stroke-miterlimit="10" width="14.049" height="14.05"/>
		
			<rect x="170.3" y="121.983" fill="none" stroke="#FFFFFF" stroke-width="3" stroke-linecap="round" stroke-linejoin="round" stroke-miterlimit="10" width="14.049" height="14.05"/>
		
			<rect x="86" y="164.131" fill="none" stroke="#FFFFFF" stroke-width="3" stroke-linecap="round" stroke-linejoin="round" stroke-miterlimit="10" width="14.052" height="14.05"/>
		
			<rect x="128.151" y="164.131" fill="none" stroke="#FFFFFF" stroke-width="3" stroke-linecap="round" stroke-linejoin="round" stroke-miterlimit="10" width="14.049" height="14.05"/>
		
			<rect x="170.3" y="164.131" fill="none" stroke="#FFFFFF" stroke-width="3" stroke-linecap="round" stroke-linejoin="round" stroke-miterlimit="10" width="14.049" height="14.05"/>
		
			<rect x="86" y="206.283" fill="none" stroke="#FFFFFF" stroke-width="3" stroke-linecap="round" stroke-linejoin="round" stroke-miterlimit="10" width="14.052" height="14.047"/>
		
			<rect x="128.151" y="206.283" fill="none" stroke="#FFFFFF" stroke-width="3" stroke-linecap="round" stroke-linejoin="round" stroke-miterlimit="10" width="14.049" height="14.047"/>
		
			<rect x="170.3" y="206.283" fill="none" stroke="#FFFFFF" stroke-width="3" stroke-linecap="round" stroke-linejoin="round" stroke-miterlimit="10" width="14.049" height="14.047"/>
	</g>
</g>
<g id="Gutters" display="none">
</g>
</svg>
