<?xml version="1.0" encoding="utf-8"?>
<!-- Generator: Adobe Illustrator 16.0.0, SVG Export Plug-In . SVG Version: 6.00 Build 0)  -->
<!DOCTYPE svg PUBLIC "-//W3C//DTD SVG 1.1//EN" "http://www.w3.org/Graphics/SVG/1.1/DTD/svg11.dtd">
<svg version="1.1" xmlns="http://www.w3.org/2000/svg" xmlns:xlink="http://www.w3.org/1999/xlink" x="0px" y="0px"
	 width="287.979px" height="276.747px" viewBox="0 0 287.979 276.747" enable-background="new 0 0 287.979 276.747"
	 xml:space="preserve">
<g id="WEB">
	<g>
		<g>
			<path fill="none" stroke="#FFFFFF" stroke-width="3" stroke-linecap="round" stroke-linejoin="round" stroke-miterlimit="10" d="
				M145.329,128.608c-8.746,0-15.866,7.205-15.866,16.051c0,8.851,7.12,16.051,15.866,16.051c8.747,0,15.864-7.201,15.864-16.051
				C161.193,135.813,154.076,128.608,145.329,128.608z"/>
		</g>
	</g>
	
		<ellipse fill="none" stroke="#FFFFFF" stroke-width="3" stroke-linecap="round" stroke-linejoin="round" stroke-miterlimit="10" cx="144.765" cy="145.192" rx="53.492" ry="109.387"/>
	<path fill="none" stroke="#FFFFFF" stroke-width="3" stroke-linecap="round" stroke-linejoin="round" stroke-miterlimit="10" d="
		M116.403,99.308c50.633-32.03,104.377-37.454,120.043-12.112c15.663,25.34-12.688,71.849-63.32,103.881
		c-50.635,32.026-104.379,37.451-120.043,12.112C37.42,177.845,65.769,131.338,116.403,99.308z"/>
	<path fill="none" stroke="#FFFFFF" stroke-width="3" stroke-linecap="round" stroke-linejoin="round" stroke-miterlimit="10" d="
		M174.58,100.262c49.581,33.676,76.426,81.088,59.955,105.902c-16.466,24.813-70.009,17.632-119.591-16.044
		c-49.576-33.674-76.423-81.091-59.955-105.904C71.46,59.404,125.001,66.586,174.58,100.262z"/>
	<g>
		<g>
			
				<path fill="#FCB810" stroke="#FFFFFF" stroke-width="3" stroke-linecap="round" stroke-linejoin="round" stroke-miterlimit="10" d="
				M210.862,61.783c-6.949,0-12.605,5.72-12.605,12.752c0,7.027,5.656,12.753,12.605,12.753s12.605-5.726,12.605-12.753
				C223.468,67.503,217.812,61.783,210.862,61.783z"/>
		</g>
	</g>
	<g>
		<g>
			
				<path fill="#FCB810" stroke="#FFFFFF" stroke-width="3" stroke-linecap="round" stroke-linejoin="round" stroke-miterlimit="10" d="
				M167.709,229.076c-6.948,0-12.604,5.721-12.604,12.75c0,7.032,5.656,12.753,12.604,12.753c6.952,0,12.605-5.721,12.605-12.753
				C180.314,234.797,174.661,229.076,167.709,229.076z"/>
		</g>
	</g>
	<g>
		<g>
			
				<path fill="#FCB810" stroke="#FFFFFF" stroke-width="3" stroke-linecap="round" stroke-linejoin="round" stroke-miterlimit="10" d="
				M58.629,109.354c-6.951,0-12.607,5.723-12.607,12.752s5.656,12.752,12.607,12.752c6.946,0,12.604-5.723,12.604-12.752
				S65.575,109.354,58.629,109.354z"/>
		</g>
	</g>
</g>
<g id="Gutters" display="none">
</g>
</svg>
