<?xml version="1.0" encoding="iso-8859-1"?>
<!-- Generator: Adobe Illustrator 16.0.0, SVG Export Plug-In . SVG Version: 6.00 Build 0)  -->
<!DOCTYPE svg PUBLIC "-//W3C//DTD SVG 1.1//EN" "http://www.w3.org/Graphics/SVG/1.1/DTD/svg11.dtd">
<svg version="1.1" id="Capa_1" xmlns="http://www.w3.org/2000/svg" xmlns:xlink="http://www.w3.org/1999/xlink" x="0px" y="0px"
	 width="287.979px" height="276.747px" viewBox="0 0 287.979 276.747" style="enable-background:new 0 0 287.979 276.747;"
	 xml:space="preserve">
<path style="fill:#B5B5B5;" d="M277.591,139.536c0,74.725-60.577,135.301-135.299,135.301c-74.723,0-135.304-60.576-135.304-135.301
	C6.989,64.809,67.57,4.234,142.292,4.234C217.014,4.234,277.591,64.809,277.591,139.536z"/>
<g>
	<g>
		<path style="fill:#FFFFFF;stroke:#B5B5B5;stroke-width:3;stroke-miterlimit:10;" d="M125.689,135.717l7.123,17.25l10.918-9.654
			C143.73,143.313,133.762,143.473,125.689,135.717z"/>
		<path style="fill:#FFFFFF;stroke:#B5B5B5;stroke-width:3;stroke-miterlimit:10;" d="M161.61,135.559l-7.124,17.25l-10.916-9.654
			C143.57,143.154,153.537,143.313,161.61,135.559z"/>
	</g>
	<path style="fill:#FFFFFF;stroke:#B5B5B5;stroke-width:3;stroke-miterlimit:10;" d="M164.426,134.63
		c-1.473,0-2.461,0.493-3.438,1.475l0,0c-0.493,0.491-6.387,5.896-17.192,5.896c-10.322,0-16.71-5.896-17.198-5.896l0,0
		c-0.98-0.981-1.971-1.475-3.443-1.475c-14.243,0-25.544,4.914-33.896,13.757c-16.706,19.158-12.279,51.095-11.789,52.076
		c0.495,2.457,2.459,4.425,4.908,4.425h122.829c2.456,0,4.422-1.968,4.91-4.425c0-1.473,4.426-32.918-11.79-52.076
		C190.463,139.543,178.67,134.63,164.426,134.63z"/>
	<path style="fill:#FFFFFF;stroke:#B5B5B5;stroke-width:3;stroke-miterlimit:10;" d="M144.282,130.209
		c18.167,0,33.232-15.063,33.232-33.231c0-18.17-15.065-33.232-33.232-33.232c-18.169,0-33.23,15.063-33.23,33.232
		C111.052,115.146,125.675,130.209,144.282,130.209z"/>
	
		<line style="fill:none;stroke:#B5B5B5;stroke-width:3;stroke-miterlimit:10;" x1="108.589" y1="203.945" x2="108.589" y2="185.727"/>
	
		<line style="fill:none;stroke:#B5B5B5;stroke-width:3;stroke-miterlimit:10;" x1="178.063" y1="203.945" x2="178.063" y2="185.727"/>
	<path style="fill:#FFFFFF;stroke:#B5B5B5;stroke-width:3;stroke-miterlimit:10;" d="M144.282,130.209
		c18.167,0,33.232-15.063,33.232-33.231c0-18.17-15.065-33.232-33.232-33.232c-18.169,0-33.23,15.063-33.23,33.232
		C111.052,115.146,125.675,130.209,144.282,130.209z"/>
</g>
</svg>
