<?xml version="1.0" encoding="utf-8"?>
<!-- Generator: Adobe Illustrator 16.0.0, SVG Export Plug-In . SVG Version: 6.00 Build 0)  -->
<!DOCTYPE svg PUBLIC "-//W3C//DTD SVG 1.1//EN" "http://www.w3.org/Graphics/SVG/1.1/DTD/svg11.dtd">
<svg version="1.1" xmlns="http://www.w3.org/2000/svg" xmlns:xlink="http://www.w3.org/1999/xlink" x="0px" y="0px"
	 width="287.979px" height="276.747px" viewBox="0 0 287.979 276.747" enable-background="new 0 0 287.979 276.747"
	 xml:space="preserve">
<g id="WEB">
	<g opacity="0.8">
		<g opacity="0.4">
			<defs>
				<rect id="SVGID_3_" x="-220.084" y="-175.484" opacity="0.4" width="198.898" height="432.029"/>
			</defs>
			<clipPath id="SVGID_2_">
				<use xlink:href="#SVGID_3_"  overflow="visible"/>
			</clipPath>
			<g opacity="0.2" clip-path="url(#SVGID_2_)">
				<g>
					<path fill="#8E9093" d="M17.914,239.279c110.098,0,199.602-89.514,199.602-199.617c0-22.348-18.125-40.502-40.521-40.502
						c-22.359,0-40.496,18.154-40.496,40.502c0,65.377-53.17,118.582-118.584,118.582c-65.281,0-118.434-53.205-118.434-118.582
						c0-22.348-18.191-40.502-40.514-40.502c-22.369,0-40.521,18.154-40.521,40.502C-181.555,149.766-92.059,239.279,17.914,239.279
						z"/>
				</g>
				<g>
					<path fill="#8E9093" d="M-141.033,80.195c22.322,0,40.514-18.164,40.514-40.533c0-65.271,53.152-118.457,118.434-118.457
						c65.414,0,118.584,53.186,118.584,118.457c0,22.369,18.137,40.533,40.496,40.533c22.396,0,40.521-18.164,40.521-40.533
						c0-109.996-89.504-199.475-199.602-199.475c-109.973,0-199.469,89.479-199.469,199.475
						C-181.555,62.031-163.402,80.195-141.033,80.195z"/>
				</g>
			</g>
		</g>
	</g>
	<path fill="#B5B5B5" d="M277.591,139.535c0,74.726-60.577,135.301-135.299,135.301S6.989,214.261,6.989,139.535
		C6.989,64.809,67.57,4.234,142.292,4.234S277.591,64.809,277.591,139.535z"/>
	<g>
		<g>
			<path fill="#FFFFFF" stroke="#B5B5B5" stroke-width="3" stroke-miterlimit="10" d="M125.689,135.717l7.123,17.251l10.918-9.655
				C143.73,143.313,133.762,143.473,125.689,135.717z"/>
			<path fill="#FFFFFF" stroke="#B5B5B5" stroke-width="3" stroke-miterlimit="10" d="M161.61,135.559l-7.124,17.25l-10.916-9.654
				C143.57,143.154,153.537,143.313,161.61,135.559z"/>
		</g>
		<path fill="#FFFFFF" stroke="#B5B5B5" stroke-width="3" stroke-miterlimit="10" d="M164.426,134.63
			c-1.473,0-2.461,0.493-3.438,1.475l0,0c-0.494,0.491-6.387,5.896-17.193,5.896c-10.322,0-16.71-5.896-17.198-5.896l0,0
			c-0.981-0.981-1.971-1.475-3.443-1.475c-14.244,0-25.544,4.913-33.897,13.757c-16.706,19.159-12.279,51.095-11.789,52.077
			c0.495,2.456,2.459,4.424,4.908,4.424h122.829c2.456,0,4.422-1.968,4.91-4.424c0-1.474,4.426-32.918-11.79-52.077
			C190.463,139.543,178.67,134.63,164.426,134.63z"/>
		<path fill="#FFFFFF" stroke="#B5B5B5" stroke-width="3" stroke-miterlimit="10" d="M144.282,130.209
			c18.167,0,33.233-15.063,33.233-33.231c0-18.17-15.066-33.232-33.233-33.232c-18.168,0-33.23,15.063-33.23,33.232
			C111.052,115.146,125.675,130.209,144.282,130.209z"/>
		
			<line fill="#FFFFFF" stroke="#B5B5B5" stroke-width="3" stroke-miterlimit="10" x1="108.589" y1="203.945" x2="108.589" y2="185.727"/>
		
			<line fill="#FFFFFF" stroke="#B5B5B5" stroke-width="3" stroke-miterlimit="10" x1="178.063" y1="203.945" x2="178.063" y2="185.727"/>
		<path fill="#FFFFFF" stroke="#B5B5B5" stroke-width="3" stroke-miterlimit="10" d="M144.282,130.209
			c18.167,0,33.233-15.063,33.233-33.231c0-18.17-15.066-33.232-33.233-33.232c-18.168,0-33.23,15.063-33.23,33.232
			C111.052,115.146,125.675,130.209,144.282,130.209z"/>
	</g>
</g>
<g id="Gutters" display="none">
</g>
</svg>
