<?xml version="1.0" encoding="utf-8"?>
<!-- Generator: Adobe Illustrator 16.0.0, SVG Export Plug-In . SVG Version: 6.00 Build 0)  -->
<!DOCTYPE svg PUBLIC "-//W3C//DTD SVG 1.1//EN" "http://www.w3.org/Graphics/SVG/1.1/DTD/svg11.dtd">
<svg version="1.1" xmlns="http://www.w3.org/2000/svg" xmlns:xlink="http://www.w3.org/1999/xlink" x="0px" y="0px"
	 width="287.979px" height="276.747px" viewBox="0 0 287.979 276.747" enable-background="new 0 0 287.979 276.747"
	 xml:space="preserve">
<g id="WEB">
	<path fill="none" stroke="#999999" stroke-width="2" stroke-linecap="round" stroke-linejoin="round" stroke-miterlimit="10" d="
		M214.636,170.01c-6.202-5.351-14.532-10.792-21.905-16.729c-3.952-2.136-7.95-2.911-11.416-1.756
		c-3.45,1.163-5.427,3.496-7.022,5.29c-4.85,5.404-8.848,6.567-12.678,6.202c-3.938-0.456-8.072-2.813-11.477-6.392l-12.177-12.168
		c-3.587-3.413-5.943-7.54-6.384-11.492c-0.365-3.823,0.79-7.821,6.187-12.663c1.794-1.604,4.135-3.58,5.29-7.038
		c1.155-3.451,0.38-7.448-1.748-11.416c-5.943-7.357-11.37-15.688-16.736-21.905c-3.664-3.678-8.984-4.803-12.921-3.572
		c-3.725,1.156-6.598,3.687-8.984,6.012c-13.468,13.46-19.107,27.309-16.69,41.263c2.401,13.955,12.009,27.073,26.435,41.499
		c5.7,5.7,11.963,11.979,17.025,17.041c14.426,14.426,27.56,24.018,41.514,26.435c13.939,2.417,27.788-3.23,41.256-16.691
		c2.326-2.394,4.864-5.259,6.02-8.984C219.454,179.009,218.329,173.689,214.636,170.01z"/>
	<path fill="none" stroke="#999999" stroke-width="2" stroke-linecap="round" stroke-linejoin="round" stroke-miterlimit="10" d="
		M259.099,141.121c0,62.325-50.528,112.853-112.853,112.853S33.394,203.445,33.394,141.121c0-62.324,50.528-112.853,112.853-112.853
		S259.099,78.796,259.099,141.121z"/>
</g>
<g id="Gutters" display="none">
</g>
</svg>
