<?xml version="1.0" encoding="utf-8"?>
<!-- Generator: Adobe Illustrator 16.0.0, SVG Export Plug-In . SVG Version: 6.00 Build 0)  -->
<!DOCTYPE svg PUBLIC "-//W3C//DTD SVG 1.1//EN" "http://www.w3.org/Graphics/SVG/1.1/DTD/svg11.dtd">
<svg version="1.1" xmlns="http://www.w3.org/2000/svg" xmlns:xlink="http://www.w3.org/1999/xlink" x="0px" y="0px"
	 width="287.979px" height="276.747px" viewBox="0 0 287.979 276.747" enable-background="new 0 0 287.979 276.747"
	 xml:space="preserve">
<g id="WEB">
	<g opacity="0.8">
	</g>
	<g>
		
			<rect x="123.711" y="111.761" fill="none" stroke="#FFFFFF" stroke-width="2.5" stroke-linejoin="round" stroke-miterlimit="10" width="41.107" height="19.525"/>
		<polygon fill="none" stroke="#FFFFFF" stroke-width="2.5" stroke-linejoin="round" stroke-miterlimit="10" points="
			187.792,103.038 187.736,102.972 187.736,102.778 187.736,102.778 144.073,70.891 100.013,102.778 100.013,102.778 
			100.013,102.972 99.954,103.038 100.013,103.038 100.013,135.186 100.013,201.906 117.998,201.906 169.748,202.177 
			187.736,202.177 187.736,135.186 187.736,103.038 		"/>
		<g>
			<g>
				
					<rect x="195.535" y="125.058" fill="none" stroke="#FFFFFF" stroke-width="2.5" stroke-linejoin="round" stroke-miterlimit="10" width="13.211" height="14.349"/>
				
					<rect x="234.893" y="125.058" fill="none" stroke="#FFFFFF" stroke-width="2.5" stroke-linejoin="round" stroke-miterlimit="10" width="13.216" height="14.349"/>
				
					<rect x="215.214" y="124.936" fill="none" stroke="#FFFFFF" stroke-width="2.5" stroke-linejoin="round" stroke-miterlimit="10" width="13.214" height="14.343"/>
			</g>
			
				<rect x="187.803" y="102.916" fill="none" stroke="#FFFFFF" stroke-width="2.5" stroke-linejoin="round" stroke-miterlimit="10" width="68.223" height="95.869"/>
			<g>
				
					<rect x="39.549" y="125.058" fill="none" stroke="#FFFFFF" stroke-width="2.5" stroke-linejoin="round" stroke-miterlimit="10" width="13.213" height="14.349"/>
				
					<rect x="78.911" y="125.058" fill="none" stroke="#FFFFFF" stroke-width="2.5" stroke-linejoin="round" stroke-miterlimit="10" width="13.216" height="14.349"/>
				
					<rect x="59.228" y="124.936" fill="none" stroke="#FFFFFF" stroke-width="2.5" stroke-linejoin="round" stroke-miterlimit="10" width="13.216" height="14.343"/>
			</g>
			
				<rect x="31.815" y="102.916" fill="none" stroke="#FFFFFF" stroke-width="2.5" stroke-linejoin="round" stroke-miterlimit="10" width="68.223" height="95.869"/>
		</g>
		<g>
			<path fill="none" stroke="#FFFFFF" stroke-width="2.5" stroke-linejoin="round" stroke-miterlimit="10" d="M144.268,153.237
				L144.268,153.237c-5.407,0-10.269,1.849-13.823,4.859c-3.561,3.004-5.749,7.169-5.749,11.678v32.148h39.215v-32.148
				c0-4.567-2.19-8.674-5.748-11.678c-3.561-3.01-8.488-4.859-13.826-4.859H144.268z"/>
			
				<line fill="none" stroke="#FFFFFF" stroke-width="2.5" stroke-linejoin="round" stroke-miterlimit="10" x1="144.268" y1="153.237" x2="144.268" y2="201.937"/>
		</g>
		
			<rect x="187.726" y="190.651" fill="none" stroke="#FFFFFF" stroke-width="2.5" stroke-linejoin="round" stroke-miterlimit="10" width="70.044" height="8.34"/>
		
			<path fill="none" stroke="#FFFFFF" stroke-width="2.5" stroke-linecap="round" stroke-linejoin="round" stroke-miterlimit="10" d="
			M100.587,91.658"/>
		
			<polyline fill="none" stroke="#FFFFFF" stroke-width="2.5" stroke-linecap="round" stroke-linejoin="round" stroke-miterlimit="10" points="
			188.307,91.398 188.307,91.398 144.649,59.511 100.587,91.398 100.587,91.398 100.587,91.595 		"/>
		
			<line fill="none" stroke="#FFFFFF" stroke-width="2.5" stroke-linecap="round" stroke-linejoin="round" stroke-miterlimit="10" x1="188.307" y1="91.658" x2="188.363" y2="91.658"/>
		<g>
			
				<path fill="none" stroke="#FFFFFF" stroke-width="2.5" stroke-linecap="round" stroke-linejoin="round" stroke-miterlimit="10" d="
				M156.779,36.642c4.086,0.938,8.294,2.015,12.63,0.403v14.247c-3.964,1.612-7.927,0.671-12.135-0.271
				c-2.602-0.673-5.2-1.209-7.925-1.209c-1.606,0-3.093,0.271-4.7,0.806V36.236C148.607,34.627,152.571,35.565,156.779,36.642z"/>
			
				<line fill="none" stroke="#FFFFFF" stroke-width="2.5" stroke-linecap="round" stroke-linejoin="round" stroke-miterlimit="10" x1="144.649" y1="31.877" x2="144.649" y2="72.319"/>
		</g>
		
			<rect x="30.209" y="190.651" fill="none" stroke="#FFFFFF" stroke-width="2.5" stroke-linejoin="round" stroke-miterlimit="10" width="70.044" height="8.34"/>
		
			<polyline fill="none" stroke="#FFFFFF" stroke-width="2.5" stroke-linecap="round" stroke-linejoin="round" stroke-miterlimit="10" points="
			188.307,91.398 188.307,91.398 144.649,59.511 100.587,91.398 100.587,91.398 100.587,91.595 		"/>
		
			<rect x="187.726" y="91.255" fill="none" stroke="#FFFFFF" stroke-width="2.5" stroke-linejoin="round" stroke-miterlimit="10" width="70.044" height="11.446"/>
		
			<rect x="30.385" y="91.255" fill="none" stroke="#FFFFFF" stroke-width="2.5" stroke-linejoin="round" stroke-miterlimit="10" width="70.041" height="11.446"/>
	</g>
</g>
<g id="Gutters" display="none">
</g>
</svg>
